<svg width="30" height="30" viewBox="0 0 30 30" fill="none" xmlns="http://www.w3.org/2000/svg">
<path d="M4.43794 14.5704C4.43794 14.5704 8.01714 11.2056 9.55794 11.2056C11.0987 11.2056 13.5163 14.7112 15.1795 14.7112C16.8427 14.7112 19.2643 11.2056 20.8011 11.2056C22.3091 11.2056 25.8203 14.5056 25.8203 14.5056C26.1547 14.7136 27.2971 13.084 26.8603 12.7968C26.8603 12.7968 22.6067 8.9952 20.8003 9C19.1371 9.004 16.8315 12.3912 15.1819 12.3864C13.5187 12.3824 11.2203 8.9984 9.55714 9C7.76274 9 3.49874 12.7968 3.49874 12.7968C3.05874 13.0848 4.29154 14.668 4.43794 14.5704ZM4.43794 21.516C4.43794 21.516 8.01714 18.1512 9.55794 18.1512C11.0987 18.1512 13.5163 21.6568 15.1795 21.6568C16.8427 21.6568 19.2643 18.1512 20.8011 18.1512C22.3091 18.1512 25.8203 21.4512 25.8203 21.4512C26.1547 21.6592 27.2971 20.064 26.8603 19.7768C26.8603 19.7768 22.6067 15.9752 20.8003 15.98C19.1371 15.984 16.8315 19.3712 15.1819 19.3664C13.5187 19.3624 11.2203 15.9776 9.55714 15.98C7.75954 15.9824 3.49154 19.776 3.49154 19.776C3.05874 20.064 4.29154 21.616 4.43794 21.516Z" fill="#232323"/>
</svg>
