<svg width="30" height="30" viewBox="0 0 30 30" fill="none" xmlns="http://www.w3.org/2000/svg">
<path d="M26.6301 7.52284C26.2153 6.95146 25.6623 6.49459 25.0229 6.19492C24.3836 5.89524 23.6787 5.76255 22.9741 5.80924C19.0133 5.80924 16.6293 10.2892 15.3973 15.538C14.1661 10.2892 11.7821 5.80924 7.82133 5.80924C7.11692 5.76244 6.41214 5.89493 5.7728 6.19431C5.13347 6.49369 4.58043 6.95021 4.16533 7.52124C2.47173 9.95244 4.05733 12.946 4.47013 14.102C4.67733 14.6804 6.75493 13.9252 6.55013 13.3468C5.86773 11.4372 5.16933 9.95884 5.97413 8.80284C6.18578 8.52218 6.46872 8.30331 6.79355 8.16896C7.11838 8.03461 7.47326 7.98968 7.82133 8.03884C9.10773 8.03884 10.9661 8.97644 12.5093 13.4436C13.6894 17.182 14.2773 21.0819 14.2517 25.002C14.2517 25.6172 16.5445 25.6172 16.5445 25.002C16.5188 21.0819 17.1067 17.182 18.2869 13.4436C19.8309 8.97644 21.6885 8.03884 22.9749 8.03884C23.3234 7.98965 23.6787 8.03472 24.0038 8.16936C24.3289 8.304 24.6121 8.5233 24.8237 8.80444C25.6285 9.96044 24.9365 11.4388 24.2541 13.3484C24.0477 13.9268 26.1253 14.6828 26.3341 14.1036C26.7445 12.9476 28.3237 9.95404 26.6301 7.52284Z" fill="#232323"/>
</svg>
