<svg width="30" height="30" viewBox="0 0 30 30" fill="none" xmlns="http://www.w3.org/2000/svg">
<path d="M26.1148 17.9296C26.1263 17.3054 26.0133 16.685 25.7824 16.1049C25.5514 15.5248 25.2072 14.9965 24.7697 14.5509C24.3323 14.1053 23.8105 13.7514 23.2347 13.5098C22.6589 13.2682 22.0408 13.1437 21.4164 13.1437C20.792 13.1437 20.1738 13.2682 19.5981 13.5098C19.0223 13.7514 18.5005 14.1053 18.063 14.5509C17.6256 14.9965 17.2814 15.5248 17.0504 16.1049C16.8195 16.685 16.7065 17.3054 16.718 17.9296C16.716 18.7087 16.9031 19.4766 17.2631 20.1674C17.6232 20.8583 18.1455 21.4515 18.7852 21.896C17.3102 22.2332 15.8014 22.3997 14.2884 22.392C14.2644 22.392 14.2428 22.3976 14.2188 22.3993C14.1948 22.4009 14.1732 22.392 14.1492 22.392C8.66759 22.392 5.79879 20.392 5.76599 20.3672C5.32039 20.044 4.17239 21.6896 4.61719 22.0136C4.75159 22.112 7.97719 24.4136 14.1492 24.4136C14.1732 24.4136 14.1956 24.408 14.2188 24.4064C14.242 24.4048 14.2644 24.4136 14.2884 24.4136C19.5396 24.4136 22.6572 22.748 23.554 22.1912C24.3289 21.782 24.9772 21.1687 25.4286 20.4175C25.8799 19.6663 26.1172 18.806 26.1148 17.9296ZM21.4164 20.6992C20.8666 20.7091 20.3263 20.5551 19.8643 20.2567C19.4024 19.9584 19.0397 19.5293 18.8224 19.0242C18.6052 18.519 18.5433 17.9606 18.6446 17.4201C18.7458 16.8796 19.0057 16.3815 19.3911 15.9892C19.7764 15.5969 20.2698 15.3282 20.8085 15.2174C21.3471 15.1065 21.9065 15.1585 22.4154 15.3667C22.9244 15.5749 23.3599 15.9299 23.6663 16.3865C23.9728 16.8431 24.1365 17.3805 24.1364 17.9304C24.1369 18.3898 24.0235 18.8422 23.8064 19.247C23.5893 19.6519 23.2753 19.9966 22.8924 20.2504C22.8157 20.2791 22.7428 20.3173 22.6756 20.364C22.6756 20.364 22.6396 20.3896 22.5788 20.428C22.217 20.6057 21.8194 20.6984 21.4164 20.6992ZM8.90119 17.0768C10.1594 17.0631 11.3608 16.5508 12.2417 15.6522C13.1225 14.7536 13.6109 13.5423 13.5996 12.284C13.6018 11.5036 13.4143 10.7343 13.0532 10.0423C12.6921 9.35041 12.1683 8.75661 11.5268 8.31205C13.004 7.97758 14.5146 7.81304 16.0292 7.82165C16.0532 7.82165 16.0756 7.81605 16.0988 7.81445C16.122 7.81285 16.1444 7.82165 16.1676 7.82165C21.6364 7.82165 24.5052 9.81525 24.5508 9.84645C24.7169 9.96751 24.9172 10.0328 25.1228 10.0328C25.4316 10.0328 26.146 8.52485 25.7004 8.20005C25.566 8.10165 22.3404 5.80005 16.1676 5.80005C16.1436 5.80005 16.1212 5.80565 16.0988 5.80725C16.0764 5.80885 16.0524 5.80405 16.0292 5.80405C10.7804 5.80405 7.66359 7.46805 6.76519 8.02645C5.98981 8.43445 5.34089 9.0469 4.88878 9.79742C4.43667 10.5479 4.1986 11.4079 4.20039 12.284C4.18908 13.5427 4.67778 14.7544 5.55916 15.653C6.44054 16.5517 7.64254 17.0638 8.90119 17.0768ZM8.90119 9.51685C9.45122 9.5062 9.99197 9.6596 10.4545 9.95749C10.917 10.2554 11.2803 10.6843 11.4981 11.1895C11.7159 11.6946 11.7783 12.2532 11.6774 12.794C11.5764 13.3348 11.3167 13.8333 10.9314 14.226C10.546 14.6186 10.0525 14.8875 9.51366 14.9986C8.97484 15.1096 8.41516 15.0576 7.90599 14.8493C7.39683 14.6409 6.96123 14.2857 6.65476 13.8288C6.34829 13.372 6.18481 12.8342 6.18519 12.284C6.18372 11.8256 6.29556 11.374 6.51078 10.9692C6.726 10.5645 7.03792 10.2192 7.41879 9.96405C7.50073 9.93378 7.57823 9.89261 7.64919 9.84165C7.64919 9.84165 7.67959 9.82005 7.72919 9.78565C8.09421 9.60783 8.49516 9.51614 8.90119 9.51765V9.51685Z" fill="#232323"/>
</svg>
