<svg width="30" height="30" viewBox="0 0 30 30" fill="none" xmlns="http://www.w3.org/2000/svg">
<path d="M22.5593 13.0928C21.8166 13.0926 21.0824 13.2515 20.4062 13.5588C19.7301 13.8662 19.1276 14.3148 18.6393 14.8744C18.6057 14.2296 18.5881 13.5744 18.5729 12.9424C18.4889 9.59445 17.6281 5.80005 14.5809 5.80005C11.9353 5.80005 11.0369 9.12565 10.0913 12.0072C9.85129 11.2944 9.5593 10.6472 9.3665 10.1568C8.4593 7.85845 6.5945 6.39685 4.6377 6.39685C4.0545 6.39605 4.0545 8.48885 4.6369 8.48885C5.4801 8.48885 6.9753 9.76005 7.6361 11.2944C8.33746 12.8955 8.83858 14.577 9.1281 16.3008C9.2321 16.7808 11.0793 16.8192 11.1513 16.3304C11.6825 12.7104 12.7745 7.89365 14.5801 7.89365C15.5689 7.89365 16.4057 10.7224 16.4625 12.9952C16.4308 14.8235 16.6126 16.6492 17.0041 18.4352C16.3979 20.0391 15.1866 21.3409 13.6305 22.0609C12.103 22.4982 10.5267 22.7425 8.9385 22.788C8.3633 22.708 8.0585 24.7768 8.6353 24.8592C10.5532 24.8338 12.4598 24.5597 14.3073 24.0441C15.8857 23.4767 17.2485 22.4321 18.2065 21.0552C18.69 21.8155 19.3634 22.4365 20.1602 22.857C20.957 23.2775 21.8497 23.483 22.7502 23.4532C23.6506 23.4234 24.5278 23.1593 25.295 22.6869C26.0623 22.2146 26.6931 21.5504 27.1253 20.7599C27.5574 19.9693 27.776 19.0798 27.7594 18.179C27.7428 17.2782 27.4916 16.3972 27.0306 15.6231C26.5696 14.8491 25.9148 14.2085 25.1306 13.7648C24.3465 13.3211 23.4603 13.0895 22.5593 13.0928ZM22.5593 21.3128C21.9545 21.308 21.3647 21.1241 20.8643 20.7846C20.3638 20.445 19.9751 19.9649 19.747 19.4048C19.519 18.8447 19.4618 18.2296 19.5828 17.637C19.7038 17.0444 19.9975 16.5009 20.4268 16.075C20.8562 15.6491 21.402 15.3598 21.9956 15.2436C22.5891 15.1274 23.2037 15.1895 23.762 15.4221C24.3203 15.6546 24.7972 16.0472 25.1327 16.5504C25.4682 17.0536 25.6473 17.6449 25.6473 18.2496C25.6431 19.0651 25.3156 19.8455 24.7367 20.4197C24.1578 20.994 23.3747 21.3152 22.5593 21.3128Z" fill="#232323"/>
</svg>
