<svg width="30" height="30" viewBox="0 0 30 30" fill="none" xmlns="http://www.w3.org/2000/svg">
<path d="M23.6496 23.5334C22.884 24.8206 21.2376 26.2806 19.8424 25.5086C18.5328 24.7846 17.9528 22.2662 19.7864 18.427C22.0224 13.7454 22.4192 9.19656 20.8232 6.55576C20.3903 5.82952 19.7731 5.23069 19.034 4.82001C18.295 4.40933 17.4605 4.20142 16.6152 4.21736C15.6929 4.14141 14.7671 4.31492 13.9348 4.71972C13.1026 5.12451 12.3945 5.74569 11.8848 6.51816C10.716 8.31736 10.5112 10.0822 11.2272 13.1086C10.7864 12.9741 10.3281 12.9056 9.8672 12.9054C8.91418 12.8931 7.97905 13.1646 7.1807 13.6852C6.38234 14.2058 5.75682 14.952 5.38365 15.829C5.01049 16.706 4.90653 17.6742 5.08501 18.6104C5.26348 19.5467 5.71633 20.4087 6.38596 21.0869C7.0556 21.7652 7.91179 22.2289 8.84568 22.4193C9.77957 22.6097 10.749 22.5181 11.6307 22.1561C12.5124 21.7941 13.2665 21.1782 13.7972 20.3865C14.328 19.5949 14.6113 18.6633 14.6112 17.7102C14.6099 17.2033 14.5289 16.6998 14.3712 16.2182C14.3636 16.1035 14.3365 15.991 14.2912 15.8854C12.6176 12.1766 12.3288 9.52216 13.5568 7.63176C13.884 7.14662 14.3379 6.76047 14.8693 6.51533C15.4006 6.27019 15.989 6.17543 16.5704 6.24136C17.0792 6.21842 17.5847 6.33399 18.033 6.57575C18.4813 6.81752 18.8556 7.1764 19.116 7.61416C20.3416 9.64136 19.8976 13.539 17.9848 17.5438C15.5664 22.6086 16.6968 26.0886 18.8904 27.2918C19.4103 27.5735 19.9903 27.7264 20.5816 27.7374C22.5504 27.8006 24.536 25.9774 25.3656 24.5782C25.6504 24.099 23.9352 23.0542 23.6496 23.5334ZM9.8664 20.4846C9.31553 20.4917 8.77498 20.3349 8.31348 20.034C7.85198 19.7331 7.49037 19.3018 7.27463 18.7949C7.0589 18.288 6.99877 17.7284 7.10191 17.1872C7.20505 16.646 7.46679 16.1477 7.85385 15.7557C8.24092 15.3637 8.73582 15.0956 9.27563 14.9856C9.81545 14.8755 10.3758 14.9285 10.8854 15.1378C11.395 15.347 11.8309 15.7031 12.1377 16.1607C12.4444 16.6183 12.6081 17.1568 12.608 17.7078C12.6116 18.4392 12.3251 19.1423 11.8111 19.6628C11.2972 20.1833 10.5979 20.4788 9.8664 20.4846Z" fill="#232323"/>
</svg>
