<svg width="30" height="30" viewBox="0 0 30 30" fill="none" xmlns="http://www.w3.org/2000/svg">
<path d="M26.7246 19.8919H4.6334C4.059 19.8919 4.059 21.9335 4.6334 21.9335H26.7246C27.2982 21.9303 27.2982 19.8919 26.7246 19.8919ZM4.6334 16.4159H12.3934C12.538 16.4155 12.6808 16.3846 12.8126 16.3252C12.9444 16.2657 13.0622 16.1792 13.1582 16.0711C13.2808 15.9865 13.3831 15.8758 13.4579 15.747C13.5327 15.6182 13.5781 15.4745 13.5909 15.3261C13.6037 15.1778 13.5835 15.0284 13.5318 14.8887C13.48 14.7491 13.3981 14.6226 13.2918 14.5183C12.9008 14.1128 12.6156 13.6174 12.4611 13.0758C12.3067 12.5341 12.2878 11.9628 12.4061 11.4121C12.5245 10.8615 12.7764 10.3483 13.1397 9.91794C13.503 9.48755 13.9666 9.15309 14.4896 8.94403C15.0126 8.73497 15.579 8.65772 16.1389 8.71908C16.6988 8.78044 17.235 8.97853 17.7003 9.2959C18.1656 9.61327 18.5458 10.0402 18.8072 10.5391C19.0687 11.0379 19.2035 11.5934 19.1998 12.1567C19.2024 12.6071 19.1073 13.0527 18.921 13.4627C18.7346 13.8728 18.4616 14.2376 18.1206 14.5319C17.9409 14.7039 17.8273 14.9337 17.7998 15.181C17.7723 15.4282 17.8326 15.6773 17.9702 15.8847C18.0591 16.045 18.1891 16.1788 18.3469 16.2723C18.5046 16.3658 18.6844 16.4157 18.8678 16.4167H26.7238C27.2974 16.4167 27.2974 14.3119 26.7238 14.3119H20.819C21.1258 13.6356 21.2824 12.9009 21.2782 12.1583C21.287 11.4315 21.1514 10.7103 20.8794 10.0363C20.6073 9.36233 20.2042 8.74907 19.6934 8.23205C19.1826 7.71504 18.5742 7.30455 17.9036 7.02439C17.233 6.74424 16.5134 6.59998 15.7866 6.59998C15.0598 6.59998 14.3402 6.74424 13.6696 7.02439C12.999 7.30455 12.3906 7.71504 11.8798 8.23205C11.369 8.74907 10.9659 9.36233 10.6938 10.0363C10.4218 10.7103 10.2862 11.4315 10.295 12.1583C10.2955 12.8975 10.442 13.6294 10.7262 14.3119H4.6334C4.0558 14.3111 4.0558 16.4159 4.6334 16.4159Z" fill="#232323"/>
</svg>
