<svg width="30" height="30" viewBox="0 0 30 30" fill="none" xmlns="http://www.w3.org/2000/svg">
<path d="M22.8946 24.7454C22.8714 24.7182 20.7346 22.0254 20.357 17.0654H22.4826C23.1226 17.0654 23.1226 14.8462 22.4826 14.8462H20.313C20.4954 9.41977 22.8522 6.66137 22.8978 6.60617C23.3138 6.12617 21.5682 4.61177 21.149 5.09337C21.0242 5.23657 18.189 8.47417 17.997 14.8454H13.6842C13.4962 8.47337 10.377 5.23577 10.2514 5.09497C9.8338 4.61497 8.0914 6.12377 8.5026 6.60777C8.5282 6.63497 11.1842 9.39417 11.3682 14.8446H8.6802C8.0402 14.8446 8.0402 17.0638 8.6802 17.0638H11.3202C11.1752 19.8512 10.1926 22.53 8.501 24.7502C8.085 25.2302 10.021 26.5254 10.249 26.263C12.318 23.6288 13.5046 20.4098 13.6402 17.063H18.0354C18.4298 22.8934 21.0274 26.1254 21.1466 26.263C21.3778 26.5254 23.3138 25.227 22.8946 24.7454Z" fill="#232323"/>
</svg>
