<svg width="30" height="30" viewBox="0 0 30 30" fill="none" xmlns="http://www.w3.org/2000/svg">
<path d="M24.9243 6.10856C24.8197 6.00445 24.6946 5.92335 24.5568 5.87045C24.419 5.81754 24.2717 5.79401 24.1243 5.80136L15.1539 6.04136C14.5691 6.06856 14.5203 8.20136 15.1067 8.17096L21.6347 8.12216L13.0827 16.4998L10.2403 13.6742C9.82594 13.263 8.32754 14.7534 8.74114 15.1646L11.5835 17.9902L6.67074 22.8758C6.25714 23.287 7.77794 24.683 8.16994 24.3662L13.0827 19.4806L16.0115 22.3926C16.4483 22.7526 17.8099 21.1998 17.3963 20.7926L14.5819 17.9926L23.0491 9.53496L22.8659 16.2398C22.8379 16.8214 24.8187 16.9046 24.8459 16.3406L25.2331 6.90056C25.2396 6.75433 25.2155 6.60834 25.1624 6.47196C25.1092 6.33557 25.0281 6.2118 24.9243 6.10856Z" fill="#232323"/>
</svg>
