<svg width="30" height="30" viewBox="0 0 30 30" fill="none" xmlns="http://www.w3.org/2000/svg">
<path d="M28.4174 23.9099L25.5798 21.0299C25.1934 20.6355 23.7646 22.0323 24.151 22.4267L25.3718 23.6579C24.3854 23.7379 22.787 23.6883 21.899 22.9459C21.6589 22.7303 21.4715 22.4624 21.3514 22.1629C21.2313 21.8635 21.1816 21.5404 21.2062 21.2187V9.79546C21.2062 7.49226 20.0742 5.04186 17.7222 5.04186C17.0741 5.09017 16.4435 5.27476 15.8716 5.58357C15.2998 5.89237 14.7996 6.31842 14.4038 6.83386C13.9126 5.73786 13.3342 5.04106 12.0542 5.04106C11.455 5.06631 10.8696 5.2283 10.3426 5.51464C9.81573 5.80097 9.36131 6.20406 9.01416 6.69306C8.34605 5.43461 7.42359 4.32881 6.30536 3.44586C5.86616 3.11226 4.65576 4.69786 5.09416 5.03546C5.78376 5.55946 7.23816 7.27946 7.23816 8.92106V21.3571C7.23816 21.9091 9.36856 21.9091 9.36856 21.3571V8.99546C9.95256 7.82586 10.915 7.06986 11.6662 7.06986C12.531 7.06986 13.2598 8.63706 13.2598 9.79466V21.4179C13.2598 21.9691 15.2598 21.9691 15.2598 21.4179V9.79546C15.2598 9.69786 15.2598 9.06346 15.255 8.96506C15.843 7.79946 16.587 7.07066 17.335 7.07066C18.7446 7.07066 19.2102 8.63786 19.2102 9.79546V21.2163C19.1842 21.83 19.2969 22.4417 19.54 23.0058C19.7831 23.57 20.1502 24.072 20.6142 24.4747C21.7863 25.3259 23.2136 25.752 24.6606 25.6827C24.8854 25.6827 25.095 25.6747 25.2862 25.6635L24.0302 26.9259C23.747 27.2259 25.1846 28.6059 25.3806 28.4011L28.4206 25.3035C28.6018 25.1166 28.7029 24.8663 28.7023 24.606C28.7017 24.3457 28.5995 24.0959 28.4174 23.9099Z" fill="#232323"/>
</svg>
