<svg width="30" height="30" viewBox="0 0 30 30" fill="none" xmlns="http://www.w3.org/2000/svg">
<path d="M25.8802 6.14447C21.1802 4.95567 19.673 7.20207 18.4618 9.00367C17.5458 10.3701 17.3698 11.9917 15.3058 11.9917C15.269 11.9917 15.2346 11.9989 15.1994 12.0021H15.1194C15.0841 11.9968 15.0486 11.9933 15.013 11.9917C12.949 11.9917 12.773 10.6413 11.8562 9.27167C10.6466 7.47327 9.1394 4.91487 4.4402 6.10447C3.8802 6.24687 4.4026 8.27247 4.9618 8.11887C9.5738 6.85487 10.2354 12.7437 11.6058 13.0533C10.6817 13.6739 9.93385 14.523 9.43496 15.5182C8.93607 16.5133 8.7031 17.6206 8.75869 18.7323C8.81428 19.8441 9.15655 20.9226 9.75222 21.863C10.3479 22.8034 11.1767 23.5737 12.1581 24.0991C13.1395 24.6244 14.2402 24.887 15.353 24.8612C16.4659 24.8354 17.5532 24.5221 18.5092 23.9518C19.4652 23.3815 20.2574 22.5736 20.8089 21.6066C21.3603 20.6396 21.6522 19.5464 21.6562 18.4333C21.6537 17.3615 21.3825 16.3074 20.8673 15.3675C20.3522 14.4277 19.6095 13.632 18.7074 13.0533C20.3074 12.7213 20.5954 6.88366 25.3522 8.15886C25.9162 8.30926 26.4402 6.28367 25.8802 6.14447ZM15.1602 22.7821C14.3021 22.7721 13.4662 22.5086 12.7576 22.0247C12.049 21.5407 11.4993 20.858 11.1778 20.0624C10.8563 19.2668 10.7773 18.3938 10.9508 17.5534C11.1243 16.713 11.5425 15.9427 12.1527 15.3395C12.763 14.7362 13.5381 14.3269 14.3804 14.1631C15.2227 13.9993 16.0947 14.0884 16.8866 14.419C17.6784 14.7496 18.3548 15.3071 18.8305 16.0213C19.3063 16.7354 19.5601 17.5744 19.5602 18.4325C19.5526 19.5924 19.085 20.702 18.26 21.5175C17.4351 22.333 16.3202 22.7878 15.1602 22.7821Z" fill="#232323"/>
</svg>
