<svg width="30" height="30" viewBox="0 0 30 30" fill="none" xmlns="http://www.w3.org/2000/svg">
<path d="M25.1796 19.2963C27.05 15.5443 26.8124 12.1131 25.6444 9.77633C25.547 9.59155 25.4094 9.43095 25.2417 9.30635C25.0741 9.18175 24.8806 9.09631 24.6756 9.05633C24.3684 8.97497 24.0425 9.00326 23.754 9.13633C22.8075 9.70213 21.9804 10.4469 21.3188 11.3291C21.2436 11.4211 21.1708 11.5163 21.0996 11.6115V10.2515C21.0996 7.78673 20.2364 5.18833 17.7396 5.18833C17.0462 5.23585 16.3709 5.43026 15.7583 5.75866C15.1458 6.08705 14.6101 6.54194 14.1868 7.09313C13.6676 5.90833 13.0772 5.18833 11.7132 5.18833C11.0723 5.21081 10.445 5.37966 9.87936 5.68195C9.31375 5.98424 8.82481 6.41195 8.44998 6.93233C7.74626 5.58515 6.77014 4.39898 5.58358 3.44913C5.11718 3.09153 3.83478 4.79233 4.30038 5.14913C5.03158 5.70913 6.92838 7.54913 6.92838 9.30913V22.0211C6.92838 22.6115 9.04758 22.6115 9.04758 22.0211V9.47233C9.66598 8.22113 10.4932 7.31233 11.2876 7.31233C12.2044 7.31233 12.9524 9.00513 12.9524 10.2443V22.0875C12.9524 22.6771 15.0716 22.6771 15.0716 22.0875V10.2427C15.0716 10.1523 15.0716 9.57233 15.0676 9.48113C15.6844 8.22913 16.5156 7.31073 17.314 7.31073C18.2308 7.31073 18.9788 9.00353 18.9788 10.2427V21.9803C18.9691 22.3428 18.9927 22.7054 19.0492 23.0635C18.4432 23.4604 17.7885 23.7772 17.1012 24.0059C16.566 24.2459 17.1236 26.0515 17.53 26.0515C17.6764 26.0411 17.8207 26.0104 17.9588 25.9603C18.6781 25.8007 19.3538 25.4859 19.9388 25.0379C20.6698 26.1865 21.6857 27.1263 22.8876 27.7659C23.0694 27.9017 23.2903 27.9749 23.5172 27.9747C23.842 27.9747 24.8484 26.5531 24.3772 26.2019C23.506 25.5523 22.5076 25.3163 21.6452 23.8019C23.1254 22.5637 24.3295 21.0288 25.1796 19.2963ZM21.0996 15.2763C21.3662 14.3609 21.8647 13.5298 22.5468 12.8635C22.9788 12.4091 23.9516 11.4555 24.0956 11.6859C24.8908 12.9595 24.5756 15.7827 23.2452 18.4243C22.7091 19.5496 21.9836 20.5744 21.1004 21.4539V15.2731L21.0996 15.2763Z" fill="#232323"/>
</svg>
