<svg width="800" height="1279" viewBox="0 0 800 1279" fill="none" xmlns="http://www.w3.org/2000/svg">
<path fill-rule="evenodd" clip-rule="evenodd" d="M796.942 508.488C796.048 509.464 794.26 509.546 793.529 508.326C790.603 503.527 787.109 498.972 782.232 496.044C774.024 491.083 764.272 492.466 755.251 493.767C745.417 495.068 735.584 496.37 725.831 494.092C720.711 492.954 716.079 490.595 712.096 487.179C708.602 484.251 705.676 480.673 702.182 477.826C692.755 470.1 679.345 468.636 667.724 466.358C625.951 458.306 584.341 444.073 552.483 414.794C535.335 399.015 522.657 379.333 505.672 363.392C488.117 346.963 466.175 331.835 441.875 328.501C430.985 326.955 419.201 327.931 409.449 333.38C399.534 338.992 391.163 347.37 383.686 355.828C374.422 366.239 366.132 377.625 358.574 389.337C360.199 392.427 361.419 395.681 362.15 399.259C366.538 397.226 371.496 396.25 376.128 398.039C381.898 400.235 385.637 405.766 388.237 411.053C394.901 424.31 397.421 439.681 399.696 454.24C400.59 460.421 401.403 466.602 402.297 472.865C403.597 481.893 405.06 490.921 403.11 500.03C401.078 509.79 395.308 518.248 390.025 526.544C385.555 533.539 382.061 541.184 377.835 548.341C376.941 549.968 375.884 551.757 374.747 553.546C379.46 549.724 383.767 545.332 387.912 540.94C397.177 531.099 406.848 521.42 417.901 513.531C426.596 507.35 437.73 504.096 448.458 506.13C454.472 507.268 450.571 512.311 449.596 516.215C447.97 522.721 448.214 530.041 447.889 536.629C447.483 543.705 447.401 550.7 448.052 557.694C448.946 568.023 453.009 580.467 446.914 589.983C442.525 596.734 434.561 600.475 429.197 606.412C424.321 611.861 421.395 617.88 419.445 624.224C424.159 626.501 428.222 629.673 430.904 634.065C440.168 648.623 427.328 665.947 416.357 675.219C408.717 681.725 399.94 687.256 393.276 694.901C391.867 697.775 390.432 700.622 388.969 703.441C387.831 705.556 386.775 707.833 385.637 710.029C384.418 714.746 383.93 719.789 383.524 724.913C382.711 735.73 382.142 747.116 382.792 758.015C383.686 771.028 390.513 782.008 395.795 793.557C400.103 802.829 401.24 812.019 402.541 822.105C403.272 828.123 403.76 836.419 407.417 842.112C406.198 825.195 410.017 785.83 428.953 794.452C429.36 794.614 429.766 794.777 429.604 795.265C419.608 827.635 416.275 861.876 418.713 895.547C423.346 958.824 428.628 1022.02 427.816 1085.54C427.409 1117.67 427.572 1149.63 428.872 1181.67C430.172 1213.72 431.879 1245.68 431.879 1277.65C431.879 1279.11 428.71 1279.35 427.978 1278.46C424.348 1274.12 420.745 1269.81 417.169 1265.53C417.007 1265.28 417.007 1265.12 417.088 1264.88C419.12 1256.82 419.77 1248.61 419.607 1240.31C419.282 1223.15 415.95 1206.24 413.675 1189.32C411.318 1171.34 411.562 1153.53 413.106 1135.4C414.731 1116.85 416.763 1098.31 416.519 1079.6C416.357 1060.33 415.138 1041.05 413.35 1021.77C409.936 984.606 404.085 947.6 400.834 910.35C398.64 884.405 398.559 857.809 392.138 832.434C385.718 806.733 371.252 785.342 347.765 772.411C333.949 764.847 318.589 760.78 304.204 769.32C292.177 776.396 283.318 788.108 274.785 798.925C266.496 809.417 257.231 819.258 246.097 826.822C236.669 833.166 226.104 837.639 215.214 840.811C202.455 844.634 189.289 846.911 176.205 849.595C158.976 853.011 142.559 858.785 125.899 864.316C110.214 869.521 94.1226 874.157 77.4623 874.808C69.9855 875.052 62.59 873.994 55.1132 873.262C47.23 872.449 37.4777 871.554 30.8136 876.922C19.3546 886.113 21.305 918.158 0.66254 913.359C0.256192 913.278 -0.068728 912.952 0.0125416 912.464C7.40807 881.802 35.3649 863.259 57.389 843.332C68.4416 833.41 78.1126 822.267 89.4091 812.589C100.543 803.154 112.571 794.696 125.411 787.701C134.595 782.659 144.185 778.511 154.018 775.095C150.117 773.224 146.379 770.947 143.372 768.181C136.22 761.431 136.302 753.542 138.984 744.839C140.121 741.179 141.828 737.275 141.747 733.371C141.665 729.061 138.658 727.434 135.164 726.702C134.107 731.907 132.238 737.682 127.443 740.529C123.705 742.806 119.154 742.643 115.171 741.179C105.175 737.519 97.292 727.515 91.6031 718.894C86.6457 711.33 80.0632 700.269 81.7698 690.753C84.0454 678.31 99.5679 672.942 109.808 669.282C122.892 664.727 140.446 661.148 148.492 648.705C135.651 644.475 121.835 649.355 108.67 647.729C97.1295 646.346 87.7024 639.677 79.2504 632.194C70.1482 624.224 61.9401 615.033 54.9509 605.111C43.6544 589.007 30.8136 562.737 48.6929 546.633C63.6466 533.213 83.0698 531.099 101.355 535.572C96.8857 527.845 92.4973 519.549 91.7658 510.603C91.2782 503.364 92.1721 496.126 91.6845 488.887C91.2781 483.113 89.4091 477.826 87.7837 472.377C85.0205 463.512 82.4198 455.216 88.5151 447.327C94.4477 439.763 102.9 433.907 110.701 428.458C119.316 422.52 128.256 417.071 136.87 411.134C145.241 405.359 152.799 397.551 162.714 394.135C170.353 391.533 177.505 393.485 184.332 397.389C189.858 400.398 194.897 404.139 200.179 407.393C204.487 410.077 209.282 411.866 214.077 413.493C223.829 416.746 234.15 418.86 243.577 422.927C243.957 423.09 244.309 423.252 244.634 423.415C246.341 417.315 248.291 411.297 250.485 405.441C253.655 396.738 257.312 387.466 263.163 380.146C268.04 374.046 274.947 369.654 282.262 366.971C300.222 360.301 325.741 362.172 343.295 373.314C343.051 370.061 342.645 366.808 342.239 363.555C340.288 348.183 338.338 330.208 325.579 319.635C319.727 314.837 312.657 311.827 306.074 308.168C298.516 303.938 292.014 298.733 286.488 291.982C275.273 278.237 269.177 261.89 261.863 246.03C255.361 231.959 247.397 218.621 239.433 205.364C221.554 175.678 202.374 146.235 189.533 113.865C178.155 85.0738 172.385 52.8663 185.389 23.5868C186.12 21.9602 189.452 22.2041 189.289 24.2374C189.046 26.6774 189.289 29.036 189.939 31.3947C193.028 41.3985 203.43 47.8238 212.126 52.3784C222.854 58.0716 234.313 62.0568 245.609 66.5301C256.824 70.922 266.902 77.1846 277.63 82.7152C291.933 90.1977 306.642 97.0296 319.971 106.139C333.299 115.167 344.352 126.228 352.56 140.136C362.068 156.402 368.57 174.214 375.153 191.781C377.916 199.427 381.411 206.991 383.442 214.88C385.149 221.549 385.637 228.462 385.393 235.375C384.824 250.584 380.517 265.387 375.803 279.783C366.782 307.029 353.86 335.658 355.973 364.937C366.132 347.776 381.654 334.438 397.258 322.075C412.862 309.632 429.36 297.757 441.956 282.06C448.214 274.333 453.578 265.468 456.423 255.871C459.348 245.542 456.91 236.27 453.416 226.51C450.165 217.32 448.458 208.536 449.84 198.857C451.059 190.073 453.253 181.371 456.097 172.994C461.38 157.541 470.238 137.452 487.224 131.921C488.362 131.596 489.662 131.84 489.987 133.06C492.831 143.064 496.57 152.661 499.496 162.583C502.015 170.96 504.209 179.826 503.64 188.691C503.234 194.953 501.121 201.135 498.764 206.991C502.665 202.924 506.078 198.532 508.029 193.408C517.375 169.334 501.852 145.341 501.202 121.185C500.877 106.871 502.746 92.475 505.428 78.4859C508.598 61.9755 513.149 45.3838 520.626 30.256C526.477 18.5442 535.092 5.85645 548.176 1.54585C551.02 0.569864 554.027 0.0818524 557.034 0.000520344C559.147 0.000520344 560.448 -0.0808018 561.504 1.78983C562.886 4.31113 564.023 6.99506 565.243 9.59769C570.769 21.3095 575.645 33.2653 579.79 45.5465C595.068 91.3364 600.595 150.953 560.285 185.925C543.218 200.728 521.926 209.024 504.128 222.688C495.107 229.601 486.086 238.466 482.673 249.69C482.104 251.479 482.104 253.594 481.291 255.302C480.803 256.522 479.909 257.579 479.259 258.718C478.988 259.206 478.717 259.694 478.446 260.182C487.792 254.895 497.87 250.991 507.541 246.274C513.311 243.509 519 240.418 524.039 236.351C529.24 232.122 532.978 226.917 536.717 221.386C548.664 203.737 559.635 185.194 577.433 172.75C588.242 165.267 600.676 159.655 613.679 157.622C627.495 155.507 641.473 157.215 654.883 160.55C667.805 163.803 680.076 168.927 692.673 172.994C702.751 176.328 712.99 179.094 723.068 182.51C743.141 189.504 761.915 199.915 772.724 219.028C773.78 220.898 770.773 221.63 769.554 221.142C765.978 219.597 761.265 222.281 758.258 224.07C753.463 226.917 749.074 230.333 744.767 233.83C736.803 240.337 729.001 248.47 719.33 252.536C705.27 258.474 690.072 260.019 675.119 261.89C662.034 263.516 649.113 265.794 635.866 263.598C622.375 261.32 609.778 255.058 596.125 253.594C583.528 252.292 570.769 253.187 558.66 248.714C555.165 247.413 551.589 245.623 547.932 244.729C546.307 244.322 544.681 245.298 542.649 245.786C539.507 246.599 536.338 247.385 533.141 248.144C520.057 251.398 507.46 255.139 495.838 262.134C486.492 267.664 477.227 273.276 468.369 279.62C461.136 284.825 452.197 290.925 447.808 299.058C450.002 299.546 452.115 299.79 454.31 299.872C469.995 300.766 486.086 297.188 501.283 294.016C516.481 290.844 531.434 287.184 546.794 284.988C581.253 279.945 618.149 280.189 650.251 295.48C686.416 312.722 706.733 348.183 730.301 378.764C743.873 396.494 759.883 412.11 772.805 430.409C779.063 439.275 795.236 462.617 784.67 472.621C789.872 478.477 794.91 484.821 797.999 491.978C800.355 497.427 801.331 503.771 796.942 508.488ZM157.757 773.875C173.604 768.832 190.183 765.985 206.925 765.579C214.402 765.416 221.797 765.66 229.193 766.392C232.687 766.799 236.101 767.287 239.595 767.775C247.072 761.594 251.461 753.135 254.711 744.026C257.718 735.649 259.831 727.027 262.269 718.488C262.649 716.752 263.136 715.044 263.732 713.364C263.787 713.147 263.84 712.957 263.895 712.794C266.577 703.604 270.803 695.227 274.622 686.524C278.93 676.52 282.993 666.516 287.707 656.757C291.202 649.681 295.021 641.791 300.872 636.342C300.764 635.908 300.656 635.502 300.547 635.122C294.696 638.213 291.933 645.126 288.032 650.169C283.562 656.025 277.386 659.034 270.315 660.579C266.739 661.392 262.107 661.962 259.018 659.359C256.337 657.163 255.93 653.097 255.361 649.925C255.036 647.647 254.63 645.289 253.899 643.093C253.167 641.059 251.704 639.189 251.298 636.993C250.973 635.529 251.461 634.39 250.648 633.089C249.185 630.486 245.447 628.372 242.684 627.558C237.32 626.094 230.412 626.664 225.779 623.004C222.203 620.157 218.465 614.383 220.741 609.747C224.561 602.101 237.401 601.125 246.015 601.369C234.15 587.868 209.688 588.682 205.381 568.349C205.218 567.535 206.762 567.129 207.25 567.047C218.546 565.339 230.005 566.234 240.733 570.382C251.379 574.449 260.806 581.199 269.584 588.438C271.155 589.739 272.726 591.04 274.297 592.342C276.167 591.691 278.117 591.203 280.149 591.04C285.269 590.471 288.845 592.342 292.908 595.432C295.184 597.221 298.191 600.556 301.116 601.288C304.774 602.183 307.862 598.279 307.699 594.782C307.374 587.95 299.003 583.558 292.908 584.452C288.276 585.184 283.969 587.299 279.174 587.38C272.916 587.38 267.471 584.208 262.92 580.142C251.867 570.382 245.121 554.929 246.503 540.126C246.584 538.825 248.86 538.744 249.835 538.988C257.718 541.102 266.983 540.858 274.46 544.681C282.912 549.073 282.587 560.785 290.145 565.99C293.071 556.881 281.205 551.025 282.993 541.916C284.456 534.189 292.827 532.644 298.272 537.198C304.611 542.404 309.568 551.025 313.713 558.019C316.151 562.167 318.183 566.641 319.646 571.277C321.19 566.397 322.003 561.354 322.328 556.23C322.328 555.58 322.328 554.929 322.328 554.278C321.678 551.838 320.784 548.748 322.246 546.389C321.596 535.816 319.321 525.405 317.452 514.995C315.664 505.316 314.688 495.394 314.851 485.553C313.632 480.51 312.982 475.467 313.225 470.262C313.713 460.177 316.395 450.173 319.646 440.576C322.815 431.304 326.391 422.114 331.023 413.493C335.575 404.871 340.938 396.413 342.808 386.734C343.376 383.725 343.539 380.634 343.458 377.544C321.271 360.383 280.393 358.675 264.464 383.969C256.662 396.331 251.623 410.89 248.047 425.367C252.436 428.376 254.305 432.524 254.142 439.112C253.899 449.767 250.079 459.933 248.535 470.425C247.316 478.802 249.754 484.658 253.167 492.222C256.743 500.111 260.644 508 262.838 516.378C264.139 521.257 265.358 528.333 259.669 530.855C253.736 533.376 249.835 528.171 247.478 523.372C243.659 515.646 241.627 507.024 239.758 498.647C237.889 490.433 236.67 482.462 236.832 474.004C236.995 457.981 239.595 441.715 243.903 426.099C241.708 424.798 239.27 423.984 236.995 423.171C228.218 419.999 219.115 417.884 210.338 414.875C200.911 411.622 193.353 406.335 184.901 401.13C176.774 396.087 169.459 392.834 160.357 397.633C151.824 402.106 144.754 408.938 136.789 414.306C128.743 419.592 120.616 424.635 112.815 430.166C105.419 435.289 97.6172 440.739 92.1722 447.896C86.1582 455.622 89.4903 464.488 92.1722 472.946C93.5538 477.501 95.098 482.055 95.5857 486.773C96.2358 493.279 95.5853 499.867 95.6666 506.374C95.8292 516.54 99.8927 524.917 104.688 533.701C105.338 534.786 105.961 535.897 106.557 537.036C111.027 538.418 115.415 540.126 119.56 542.241C132.807 548.748 144.591 557.938 156.781 566.153C164.99 571.683 172.792 576.644 182.381 579.247C187.095 580.548 218.872 586.892 213.427 596.164C210.501 601.125 202.049 598.93 197.741 597.709C188.802 595.188 180.512 591.04 171.898 587.543C162.796 583.802 152.962 583.72 143.453 581.606C133.213 579.41 125.899 574.123 120.047 565.421C114.115 556.637 108.345 547.609 102.981 538.418C102.927 538.31 102.873 538.202 102.819 538.093C96.8859 536.304 90.7905 535.247 84.3702 535.165C71.3671 535.165 56.251 540.777 48.2866 551.513C41.8663 560.215 43.2478 571.195 46.5799 580.792C53.8129 601.451 69.1728 619.994 85.9956 633.658C95.5854 641.466 105.419 646.346 118.097 646.102C129.475 645.858 141.096 643.255 152.149 647.241C152.393 647.403 153.043 647.729 152.799 648.135C145.485 660.172 130.369 664.483 117.935 668.712C107.207 672.372 91.3596 676.276 86.5647 687.907C83.1513 696.365 89.0838 707.264 93.2285 714.34C98.4298 723.205 105.419 732.395 114.359 737.682C117.528 739.552 121.673 741.423 125.005 739.146C129.312 736.299 130.613 729.955 131.425 725.319C131.588 724.343 133.701 724.262 134.351 724.343C138.089 724.669 142.884 725.482 144.916 729.142C146.46 731.989 145.647 735.486 144.916 738.414C142.315 748.255 137.927 757.283 146.054 765.904C149.142 769.239 153.287 771.841 157.757 773.875ZM243.09 494.987C244.715 502.714 246.584 510.359 249.348 517.679C250.241 520.119 256.256 534.433 259.344 527.113C261.782 521.583 257.799 513.043 255.768 508C252.923 500.68 249.347 493.686 246.422 486.447C243.74 480.022 243.821 474.573 245.04 467.741C246.828 457.981 250.323 448.14 250.16 438.136C250.079 434.801 249.591 431.06 247.234 428.539C246.313 432.497 245.474 436.374 244.715 440.169C241.058 458.306 239.189 476.85 243.09 494.987ZM120.535 559.402C125.98 567.617 131.344 575.343 141.097 578.596C150.199 581.524 160.032 581.199 169.216 583.802C176.286 585.754 182.95 589.414 189.777 592.179C193.028 593.48 207.656 600.556 209.769 595.513C211.801 590.878 201.155 587.543 198.392 586.567C191.565 584.046 184.495 582.338 177.587 580.386C169.622 578.19 162.877 573.879 155.969 569.325C140.934 559.321 125.574 546.796 108.345 540.045C112.246 546.633 116.39 553.058 120.535 559.402ZM790.766 486.854C788.003 482.625 784.914 478.639 781.501 474.817C780.634 475.251 779.686 475.657 778.657 476.037C777.844 476.281 776.381 476.281 775.974 475.305C774.783 472.323 773.428 469.449 771.911 466.684C771.098 465.22 770.286 463.81 769.473 462.454C749.643 443.341 727.538 426.587 705.189 410.565C684.058 395.518 662.441 381.122 640.092 367.947C633.59 364.124 626.926 360.22 620.018 357.211C614.086 354.608 606.121 353.144 599.538 351.68C586.21 348.671 572.719 346.394 559.554 342.896C552.646 341.026 545.819 339.48 538.749 338.667C532.084 337.854 525.339 337.528 518.594 336.959C505.835 335.983 493.319 334.112 481.291 329.639C461.055 321.994 437.487 307.192 416.601 320.937C415.138 321.913 412.049 320.611 413.756 318.822C415.273 317.304 416.899 315.894 418.632 314.593C435.78 302.312 460.405 304.996 479.909 308.493C505.916 313.047 531.191 321.669 555.978 330.696C566.543 334.519 577.108 338.504 587.754 342.246C600.513 346.719 613.435 350.46 626.032 355.503C643.505 362.416 660.49 370.387 677.232 379.008C691.779 386.49 706.408 394.135 719.573 403.977C732.577 413.655 744.604 424.798 755.251 436.997C761.671 444.236 767.848 452.044 772.886 460.421C775.92 463.349 778.846 466.331 781.663 469.368C781.88 469.584 782.07 469.801 782.232 470.018C786.865 464.406 782.395 454.728 779.794 449.279C774.756 439.031 767.766 429.596 760.615 420.65C754.844 413.33 748.668 406.173 742.41 399.259C732.252 388.036 723.231 376.08 714.372 363.88C702.751 347.939 691.292 331.754 676.907 318.171C663.904 305.89 648.137 296.944 630.99 291.738C597.588 281.572 561.585 284.744 527.859 291.576C513.555 294.422 499.414 298.001 485.029 300.441C477.471 301.661 469.832 302.718 462.192 303.125C456.26 303.369 450.083 303.369 444.395 301.661C443.501 301.336 442.932 300.522 443.338 299.546C445.37 294.992 449.027 291.169 452.684 287.753C457.398 283.361 462.68 279.457 467.963 275.716C477.715 268.965 488.036 262.378 498.52 256.684C510.873 249.934 524.852 246.843 538.424 243.509C540.266 243.075 542.108 242.614 543.95 242.126C545.413 241.801 547.038 241.069 548.582 241.313C549.395 241.394 550.289 241.963 551.102 242.207C554.678 243.59 558.253 244.973 561.829 246.193C575.564 251.154 590.68 248.633 604.74 251.642C617.661 254.407 629.77 260.1 643.017 261.158C649.925 261.646 656.752 261.076 663.579 260.182C671.624 259.124 679.751 258.148 687.878 257.01C700.719 255.302 714.697 252.943 725.425 245.135C734.04 238.873 741.76 231.39 750.456 225.128C755.088 221.874 761.102 217.645 767.116 217.564C754.601 198.044 733.227 189.097 711.69 182.428C701.938 179.419 692.186 176.654 682.596 173.156C669.674 168.358 656.508 163.722 642.855 161.445C628.714 159.005 614.004 159.411 600.432 164.373C589.136 168.602 578.49 175.108 569.794 183.486C562.398 190.48 556.303 198.695 550.614 207.072C544.681 215.937 539.318 226.022 531.922 233.83C516.4 250.096 492.669 254.407 474.383 266.526C473.245 267.339 470.157 266.688 471.295 264.818C472.704 262.432 474.112 260.046 475.521 257.66C476.171 256.603 477.146 255.464 477.553 254.244C478.365 252.292 478.528 249.934 479.178 247.819C482.754 237.571 490.556 229.275 498.764 222.525C514.449 209.674 533.385 201.785 549.72 189.911C557.928 183.892 565.568 176.898 571.419 168.439C577.758 159.33 581.821 148.757 584.26 137.94C594.662 92.231 577.92 43.9198 557.766 3.2538C541.593 3.0098 530.865 18.2189 524.364 31.3133C516.399 47.2544 511.848 64.8221 508.76 82.2272C506.241 96.4603 504.128 111.507 505.591 125.984C507.948 150.221 524.039 177.711 508.435 200.728C504.697 206.177 499.983 210.894 495.107 215.53C492.425 221.386 489.337 226.998 485.842 232.447C482.104 238.059 477.715 243.997 471.864 247.657C471.051 248.145 468.694 248.226 468.613 246.681C468.532 243.021 469.588 239.605 471.376 236.351C475.927 228.055 483.485 221.63 490.23 215.205C490.718 214.771 491.206 214.337 491.694 213.904C493.048 210.922 494.321 207.885 495.513 204.795C498.032 197.963 500.064 191.049 499.658 183.73C498.601 167.057 491.287 151.603 486.573 135.744C478.446 139.241 472.758 146.886 468.45 154.369C463.087 163.885 459.348 174.295 456.666 184.868C454.472 193.489 452.44 202.761 453.578 211.626C454.797 220.736 459.348 228.869 461.136 237.815C465.037 257.01 452.765 275.96 440.412 289.461C414.081 318.334 374.34 335.576 356.461 371.932C355.811 373.315 352.885 373.558 352.641 371.688C352.099 367.947 351.801 364.178 351.747 360.383C351.422 328.826 365.969 299.465 374.828 269.779C379.054 255.546 382.467 240.581 381.086 225.616C380.435 217.808 377.997 210.732 375.234 203.412C371.902 194.791 368.733 186.088 365.401 177.467C358.818 160.469 351.585 142.738 339.801 128.586C329.48 116.143 315.907 107.033 301.766 99.3069C287.544 91.4177 272.753 84.6672 258.775 76.3713C249.835 71.0847 239.595 67.9127 229.924 64.0901C218.953 59.7795 207.738 55.1436 198.31 47.9864C192.784 43.8385 188.152 38.5519 186.201 32.2893C185.768 33.4822 185.388 34.6751 185.063 35.8679C176.286 67.0994 186.77 99.7949 200.098 128.098C214.727 159.167 233.988 187.715 251.136 217.401C258.856 230.577 265.358 244.159 271.534 258.148C278.849 274.659 287.788 292.145 303.392 302.312C315.989 310.608 330.942 314.999 338.256 329.395C341.67 336.064 343.133 343.466 344.433 350.786C345.815 358.756 346.952 366.808 347.359 374.86C347.413 375.348 347.44 375.809 347.44 376.242C350.935 379.008 354.023 382.261 356.542 385.921C367.432 369.167 379.541 352.819 394.82 339.724C402.866 332.892 411.562 327.525 422.127 325.573C433.342 323.539 444.964 324.841 455.854 328.257C479.422 335.576 500.146 351.517 516.969 369.248C525.258 377.95 532.166 387.71 540.13 396.657C547.526 405.034 555.571 412.923 564.267 419.999C580.765 433.337 599.782 443.016 619.775 450.011C631.071 453.996 642.611 457.168 654.151 460.096C665.773 463.024 677.801 464.406 689.341 467.741C694.705 469.205 699.744 471.32 704.132 474.654C708.033 477.663 711.121 481.323 714.697 484.577C723.312 492.141 735.015 492.791 745.905 491.653C755.169 490.758 764.759 488.318 774.105 489.701C783.451 491.083 790.278 496.614 795.479 504.096C795.479 504.042 795.479 503.988 795.479 503.934C797.511 498.24 793.691 491.49 790.766 486.854ZM370.927 559.402C364.425 568.511 355.811 576.644 344.677 573.798C344.108 576.726 343.051 579.572 341.507 582.256C337.281 589.495 330.942 595.026 325.579 601.369C320.702 607.144 315.907 616.091 321.596 623.085C327.448 630.242 340.288 625.281 347.359 623.085C354.836 620.889 362.069 618.775 369.789 617.961C377.429 617.229 385.149 617.148 392.788 617.798C399.859 618.449 408.311 619.669 415.788 622.516C418.47 615.033 422.858 608.201 428.71 602.752C433.911 597.872 441.306 594.212 444.313 587.462C446.345 582.907 446.345 577.864 445.858 572.985C445.207 566.153 443.907 559.321 443.663 552.408C443.338 545.901 443.663 539.394 444.07 532.888C444.476 527.439 444.313 521.583 445.614 516.215C446.101 514.588 448.377 511.01 447.889 509.302C447.32 506.862 441.388 507.919 439.518 507.919C425.134 508.407 414.162 519.305 404.166 528.496C394.658 537.198 386.856 547.528 376.697 555.498C374.801 556.962 372.877 558.263 370.927 559.402ZM293.152 568.105C292.664 569.081 290.795 569.406 289.82 568.999C285.269 567.129 282.506 564.038 280.311 559.565C278.198 555.254 276.41 549.398 272.022 546.714C268.365 544.356 263.163 543.868 259.018 543.054C256.174 542.566 253.249 542.078 250.404 541.509C249.754 557.694 259.1 578.271 274.785 584.29C280.393 586.486 285.106 584.127 290.551 582.907C294.777 581.931 299.003 582.012 302.985 583.802C306.399 585.347 309.893 588.031 311.194 591.61C313.307 587.624 315.582 583.72 317.614 579.898C315.663 569.569 311.031 560.785 305.18 552.001C302.579 547.934 299.979 543.786 296.647 540.289C294.94 538.5 292.014 535.328 289.495 537.28C287.382 538.825 286.65 541.916 286.976 544.274C288.195 553.058 298.516 558.507 293.152 568.105ZM405.791 667.086C412.293 655.943 411.562 643.825 413.431 631.625C413.81 629.402 414.325 627.206 414.975 625.037C405.71 620.808 394.17 619.75 384.986 619.425C377.672 619.262 370.277 619.588 362.963 620.889C354.754 622.353 346.952 625.769 338.663 627.477C332.567 628.778 324.441 629.998 319.239 625.606C315.989 622.841 314.851 618.693 315.176 614.545C313.794 616.497 312.25 618.286 310.462 619.995C309.812 620.645 307.293 621.377 306.724 620.238C304.936 616.416 304.53 612.512 305.099 608.364C305.424 606.249 305.911 604.216 306.561 602.264C305.423 602.833 304.204 603.24 302.904 603.484C298.516 604.216 295.021 601.207 291.77 598.604C289.251 596.652 286.488 593.968 283.318 593.155C281.043 592.586 278.442 593.074 276.166 593.887C282.343 599.011 288.52 604.216 294.533 609.584C298.272 612.919 302.498 616.985 303.798 622.109C305.667 629.592 298.272 633.74 292.095 635.285C284.862 637.074 275.435 636.993 268.852 633.089C261.457 628.697 264.545 621.702 269.421 616.823C264.87 615.44 259.425 612.756 259.344 607.469C259.344 602.833 263.163 598.848 266.577 596.327C267.931 595.351 269.367 594.483 270.884 593.724C267.389 590.796 263.814 587.868 260.157 585.103C245.122 573.635 228.624 566.559 209.607 568.755C214.645 588.275 240.327 587.218 251.217 602.02C252.03 603.077 249.429 603.565 248.941 603.565C240.164 602.996 216.19 604.948 226.836 618.937C230.981 624.386 237.238 623.98 243.334 625.362C247.397 626.176 252.517 628.453 254.711 632.276C255.199 633.252 255.037 633.902 255.199 634.96C255.362 636.993 256.093 638.457 256.906 640.246C258.45 643.499 259.019 646.915 259.588 650.413C260.156 653.341 260.644 657.407 263.732 658.79C269.015 661.067 278.117 656.268 281.693 652.771C288.763 645.939 291.12 635.773 301.36 632.438C302.091 632.194 303.636 632.194 304.042 633.089C304.205 633.523 304.367 633.956 304.529 634.39C305.261 634.309 305.993 634.39 306.074 635.122C306.48 639.839 306.886 645.614 309.893 649.518C311.925 652.202 315.176 653.259 318.183 654.479C326.391 657.732 334.193 662.206 339.719 669.282C345.896 677.09 347.928 686.849 350.366 696.284C353.373 707.67 359.224 718.325 364.263 729.142C365.4 728.491 366.538 727.814 367.676 727.109C374.421 722.798 378.16 716.536 381.736 709.785C383.117 704.498 385.23 699.7 388.969 695.227C389.131 695.01 389.294 694.82 389.456 694.657C390.838 691.892 392.301 689.208 393.764 686.524C397.421 679.773 401.972 673.674 405.791 667.086ZM273.81 616.578C268.283 621.784 265.439 629.022 274.053 632.52C284.293 636.749 307.943 632.845 297.297 617.636C293.152 611.699 286.894 607.469 281.53 602.915C278.605 600.393 275.679 597.872 272.753 595.351C268.934 597.384 265.114 600.475 263.814 604.541C261.782 610.885 268.202 613.976 273.322 615.44C273.81 615.521 274.297 616.091 273.81 616.578ZM360.768 731.013C359.793 728.952 358.79 726.865 357.761 724.75C352.722 714.177 348.171 703.848 345.246 692.38C342.564 681.807 339.069 671.966 330.536 664.808C326.635 661.555 322.246 659.034 317.695 657.082C315.013 655.943 312.169 655.13 309.65 653.666C307.537 652.446 306.074 650.738 305.017 648.705C302.335 661.067 293.314 672.454 286.325 682.376C279.986 691.404 271.859 701.57 267.796 712.632C267.146 714.855 266.522 717.078 265.926 719.301C265.547 721.253 265.358 723.205 265.358 725.157C265.276 732.558 268.608 739.552 274.053 744.351C278.686 748.499 285.756 748.662 291.608 748.58C309.893 748.499 328.667 743.619 345.815 737.357C350.853 735.486 355.892 733.453 360.768 731.013ZM378.729 751.346C378.81 740.773 378.891 730.199 380.029 719.708C380.029 719.653 380.029 719.599 380.029 719.545C379.65 720.141 379.244 720.683 378.81 721.171C375.478 725.645 370.195 728.735 365.238 731.338C370.114 741.911 373.934 752.81 373.365 764.847C373.284 766.311 370.602 766.311 369.708 765.823C354.917 758.178 338.013 754.111 321.515 752.891C313.551 752.24 304.936 752.078 297.297 754.599C289.901 756.958 283.806 761.837 277.061 765.497C265.439 771.841 253.736 771.76 240.896 770.133C229.111 778.917 213.02 782.74 198.96 783.716C188.964 784.448 178.643 783.797 169.053 780.788C165.152 779.568 160.926 778.185 156.863 776.396C142.397 781.276 128.581 787.945 115.74 796.241C103.469 804.13 92.1723 813.321 81.6885 823.487C71.7736 833.003 62.3462 842.844 51.8624 851.872C32.5202 868.545 10.7402 885.787 4.15737 911.732C8.95228 912.302 11.7151 907.828 13.5843 903.843C17.6478 895.466 19.1109 885.056 25.6125 877.898C34.1458 868.545 49.1806 870.416 60.477 871.636C69.3354 872.612 78.0313 873.1 86.971 872.042C95.9919 870.904 104.769 868.708 113.465 866.105C130.613 860.981 147.192 854.231 164.665 850.001C190.183 843.82 217.571 841.787 240.326 827.554C252.517 819.99 262.351 809.579 271.209 798.356C279.58 787.782 288.194 776.477 299.816 769.157C322.815 754.518 349.959 766.636 368.489 783.146C387.506 800.226 395.796 824.463 399.534 849.107C403.76 876.76 404.085 904.982 407.336 932.879C411.887 972.081 417.332 1011.2 419.607 1050.65C420.664 1069.68 421.151 1088.71 419.607 1107.74C418.226 1126.2 415.625 1144.59 415.788 1163.13C415.95 1196.72 429.441 1231.2 421.151 1264.63C423.373 1267.34 425.594 1270.03 427.816 1272.68C427.572 1238.12 425.621 1203.55 424.321 1168.99C423.102 1136.94 423.834 1104.98 423.915 1072.85C423.915 1040.72 422.615 1008.52 420.664 976.391C419.689 960.369 418.551 944.347 417.251 928.324C416.113 912.952 414.406 897.662 414.081 882.372C413.35 853.173 416.926 823.812 425.459 795.916C412.212 791.768 410.343 839.184 412.131 846.911C412.456 848.293 409.124 848.293 408.392 847.887C405.467 846.179 403.597 843.413 402.216 840.242C398.802 832.108 398.559 822.836 397.421 814.215C396.852 809.905 396.283 805.431 394.82 801.284C392.707 795.184 389.456 789.409 386.612 783.553C381.41 773.061 378.566 763.139 378.729 751.346ZM301.604 639.921C295.59 646.997 291.689 656.513 288.032 664.646C284.294 672.86 280.962 681.156 277.223 689.371C280.149 685.304 282.993 681.4 285.675 677.659C292.908 667.248 303.067 653.422 301.604 639.921ZM195.628 768.181C183.682 769.239 171.979 771.679 160.601 775.176C164.746 776.884 168.972 778.185 172.792 779.324C183.519 782.496 195.141 782.577 206.112 781.032C216.921 779.405 227.974 775.989 237.076 769.645C223.26 767.937 209.607 766.961 195.628 768.181ZM337.119 742.48C320.133 747.604 300.954 752.24 283.074 750.288C276.573 749.556 271.697 747.523 267.471 742.48C265.033 739.553 263.326 736.299 262.351 732.883C259.831 741.911 256.824 750.776 251.704 758.747C249.347 762.407 246.503 765.497 243.334 768.263C246.422 768.669 249.592 768.995 252.842 769.157C261.376 769.564 268.771 767.612 276.166 763.301C281.693 760.048 287.057 756.226 293.071 753.867C305.342 748.987 319.808 750.044 332.649 751.915C345.246 753.786 357.843 757.12 369.383 762.569C369.302 752.24 365.888 742.48 361.662 733.127C353.779 736.95 345.489 739.878 337.119 742.48ZM309.568 616.578C316.801 608.039 319.321 596.978 318.427 585.835C317.506 587.407 316.639 588.98 315.826 590.552C311.763 598.279 307.13 607.713 309.568 616.578ZM418.713 627.07C417.413 632.357 416.763 637.888 416.275 643.662C415.706 649.843 414.813 655.943 412.456 661.636C409.367 669.119 404.003 675.382 400.021 682.295C399.209 683.759 398.396 685.25 397.583 686.768C401.728 683.271 406.198 680.018 410.424 676.602C421.883 667.33 437.649 648.786 426.109 633.658C424.077 630.974 421.558 628.86 418.713 627.07ZM328.179 563.631C327.366 569.243 324.766 574.774 321.84 579.979C323.059 587.299 322.978 594.782 321.109 601.776C324.441 597.547 328.504 593.887 331.917 589.82C338.013 582.744 341.67 575.506 341.263 565.99C341.02 558.507 339.638 544.193 328.992 545.332C327.691 545.494 326.798 546.064 326.31 546.877C326.473 549.48 326.5 552.082 326.391 554.685C327.285 558.101 328.423 561.598 328.179 563.631ZM364.507 562.493C363.694 562.818 362.881 563.089 362.069 563.306C356.055 565.095 350.935 566.315 347.928 572.171C354.511 573.31 360.281 567.779 364.507 562.493ZM358.493 401.781C358.005 398.798 357.192 395.979 356.055 393.322C351.422 400.642 346.953 408.206 342.645 415.688C335.737 427.807 328.667 440.413 324.197 453.671C320.784 463.837 319.077 474.491 318.914 485.227C318.914 485.281 318.914 485.336 318.914 485.39C318.806 489.457 318.914 493.55 319.239 497.671C320.458 512.799 324.766 528.415 326.066 543.786C327.61 543.38 329.236 543.298 330.617 543.298C339.475 543.298 343.295 550.049 344.596 557.938C345.327 562.005 345.571 565.99 345.246 569.975C347.359 566.966 350.285 564.933 354.023 563.55C358.737 561.923 363.125 560.785 367.432 558.589C367.432 558.535 367.459 558.48 367.513 558.426C372.877 550.944 377.022 542.729 381.411 534.596C389.212 520.119 400.184 507.675 400.103 490.433C400.021 483.519 398.721 476.769 397.827 469.937C397.014 464.081 396.202 458.144 395.226 452.288C393.113 438.868 385.637 387.222 362.069 402.025C361.337 402.431 358.737 403.082 358.493 401.781ZM343.052 398.609C339.069 407.637 333.543 415.932 329.723 425.042C325.172 435.859 320.54 447.571 318.427 459.526C321.19 449.604 325.335 440.169 330.129 430.898C336.631 418.128 343.945 405.847 351.504 393.729C352.37 392.373 353.264 390.991 354.185 389.581C352.722 387.087 351.016 384.755 349.065 382.586C348.524 382.044 347.955 381.502 347.359 380.96C347.034 386.978 345.571 392.834 343.052 398.609ZM473.002 242.533C477.959 238.222 481.697 232.285 484.948 226.836C485.652 225.643 486.33 224.45 486.98 223.257C481.697 228.381 474.708 234.887 473.002 242.533ZM778.9 471.97C778.954 472.079 779.009 472.187 779.063 472.295C779.117 472.295 779.171 472.295 779.225 472.295C779.117 472.187 779.009 472.079 778.9 471.97ZM743.711 430.084C732.739 418.942 720.711 408.613 707.627 399.991C693.567 390.801 678.207 383.237 663.091 375.836C658.54 373.613 653.989 371.444 649.438 369.329C673.006 383.644 695.924 399.178 718.111 415.526C732.252 425.855 746.392 436.591 759.639 448.14C754.682 441.796 749.237 435.777 743.711 430.084ZM580.196 343.14C569.387 339.236 558.66 335.251 547.851 331.428C523.795 322.889 499.17 314.674 473.896 310.77C460.405 308.737 443.582 307.192 430.01 312.315C452.44 308.981 473.083 324.759 493.969 330.127C507.704 333.624 521.845 333.624 535.904 335.007C549.964 336.39 563.292 340.619 577.108 343.547C580.63 344.306 584.151 345.038 587.673 345.743C585.181 344.93 582.688 344.062 580.196 343.14Z" fill="white"/>
</svg>
